<svg id="Capa_1" enable-background="new 0 0 512 512" height="512" viewBox="0 0 512 512" width="512" xmlns="http://www.w3.org/2000/svg"><g><g><path d="m504.5 383.28v-15.556c0-16.279-9.768-30.967-24.78-37.263l-37.85-15.873c0-102.653-83.217-185.87-185.87-185.87s-185.87 83.218-185.87 185.871l-37.85 15.873c-15.012 6.295-24.78 20.984-24.78 37.263v15.556h497z" fill="#fcee56"/></g><g><path d="m441.87 314.589c0-99.497-78.178-180.732-176.458-185.634 65.461 36.249 109.787 106.012 109.787 186.139v68.186h129.301v-15.556c0-16.279-9.768-30.967-24.78-37.263z" fill="#f3d802"/></g><g><path d="m335.803 284.285-13.132 13.132-5.334 5.334c-7.586 7.586-17.86 11.839-28.578 11.839h-50.943v-30.305z" fill="#a8d0d5"/></g><g><path d="m335.803 284.285-13.132 13.132h-84.854v-13.132z" fill="#8db9c2"/></g><g><path d="m389.916 252.97-19.48 19.48c-7.578 7.578-17.855 11.835-28.572 11.835h-104.047v-31.315z" fill="#a8d0d5"/></g><g><path d="m389.916 252.97h-152.099v14.142h137.957z" fill="#8db9c2"/></g><g><path d="m441.87 221.654-19.48 19.48c-7.578 7.578-17.855 11.835-28.572 11.835h-156.001v-31.315z" fill="#a8d0d5"/></g><g><path d="m441.87 221.654h-204.053v14.143h189.911z" fill="#8db9c2"/></g><g><path d="m240.848 314.589-57.184-57.184c-7.368-7.368-11.507-17.36-11.507-27.779 0-21.697 17.589-39.286 39.286-39.286h281.946l-19.48 19.48c-7.578 7.578-17.855 11.835-28.572 11.835h-179.525c-14.065 0-23.826 14.014-18.951 27.207l24.291 65.728h-30.304z" fill="#eff3f5"/></g><g><path d="m228.726 258.02c-12.51 0-24.079 4.089-33.456 10.991l45.578 45.578h30.305l-19.026-51.481c-7.138-3.257-15.057-5.088-23.401-5.088z" fill="#c9e2e7"/></g><g><path d="m463.083 190.339-19.48 19.48c-7.578 7.578-17.855 11.835-28.572 11.835h30.305c10.716 0 20.994-4.257 28.572-11.835l19.48-19.48z" fill="#c9e2e7"/></g><g><circle cx="228.726" cy="314.589" fill="#eff3f5" r="41.417"/></g><g><circle cx="228.726" cy="314.589" fill="#c9e2e7" r="15.152"/></g><g><path d="m482.62 323.543-33.313-13.968c-.608-24.216-5.63-47.651-14.95-69.802l10.619-10.619h.36c12.796 0 24.826-4.983 33.875-14.031l19.48-19.48c2.145-2.145 2.787-5.371 1.626-8.173-1.161-2.803-3.896-4.63-6.929-4.63h-95.877c-36.512-39.196-87.885-61.62-141.511-61.62-104.946 0-190.633 84.042-193.306 188.355l-33.316 13.969c-17.847 7.491-29.378 24.831-29.378 44.176v15.56c0 4.142 3.358 7.5 7.5 7.5h67.089c4.142 0 7.5-3.358 7.5-7.5s-3.358-7.5-7.5-7.5h-59.589v-8.06c0-13.288 7.922-25.199 20.18-30.344l36.46-15.287h108.745c3.62 23.425 23.918 41.417 48.341 41.417s44.721-17.991 48.341-41.417h102.869c4.142 0 7.5-3.358 7.5-7.5s-3.358-7.5-7.5-7.5h-56.331l15.304-15.305h2.955c12.796 0 24.827-4.983 33.875-14.032l17.284-17.283h.795c10.539 0 20.554-3.387 28.816-9.635 6.901 17.979 10.775 36.832 11.568 56.255h-19.171c-4.142 0-7.5 3.358-7.5 7.5s3.358 7.5 7.5 7.5h25.329l36.457 15.286c12.261 5.146 20.183 17.057 20.183 30.345v8.06h-387.456c-4.142 0-7.5 3.358-7.5 7.5s3.358 7.5 7.5 7.5h394.956c4.142 0 7.5-3.358 7.5-7.5v-15.56c0-19.345-11.531-36.685-29.38-44.177zm-226.62-187.323c44.597 0 87.506 16.814 120.205 46.619h-76.709c-4.142 0-7.5 3.358-7.5 7.5s3.358 7.5 7.5 7.5h175.786l-6.677 6.677c-6.215 6.215-14.479 9.638-23.269 9.638h-179.524c-9.057 0-17.555 4.437-22.732 11.869s-6.394 16.941-3.254 25.438l6.462 17.485c-5.455-2.106-11.373-3.274-17.562-3.274-7.631 0-14.857 1.759-21.3 4.888l-18.459-18.46c-6.003-6.002-9.31-13.985-9.31-22.476 0-17.527 14.259-31.786 31.786-31.786h53.057c4.142 0 7.5-3.358 7.5-7.5s-3.358-7.5-7.5-7.5h-53.058c-25.798 0-46.786 20.988-46.786 46.786 0 12.498 4.867 24.247 13.703 33.083l16.568 16.569c-7.595 7.273-12.866 16.954-14.544 27.813h-102.584c3.946-94.887 82.361-170.869 178.201-170.869zm-27.274 212.286c-18.702 0-33.917-15.215-33.917-33.917s15.215-33.917 33.917-33.917 33.917 15.215 33.917 33.917-15.216 33.917-33.917 33.917zm83.304-51.055c-6.215 6.215-14.479 9.638-23.269 9.638h-.001-11.693c-.842-5.45-2.595-10.601-5.085-15.305h45.714zm53.102-30.305c-6.215 6.215-14.479 9.638-23.269 9.638h-76.687l-6.03-16.315h112.662zm28.686-21.676h-140.162c-1.117-3.725-.517-7.643 1.732-10.873 2.409-3.458 6.208-5.442 10.424-5.442h157.952l-6.677 6.677c-6.216 6.215-14.48 9.638-23.269 9.638z"/><path d="m228.726 291.937c-12.491 0-22.652 10.162-22.652 22.652s10.162 22.652 22.652 22.652 22.652-10.162 22.652-22.652-10.162-22.652-22.652-22.652zm0 30.305c-4.22 0-7.652-3.433-7.652-7.652s3.433-7.652 7.652-7.652 7.652 3.433 7.652 7.652-3.433 7.652-7.652 7.652z"/></g></g></svg>